<svg xmlns="http://www.w3.org/2000/svg"><symbol id="error" viewBox="0 0 36 36"><path d="M17 25.9a1.6 1.6 0 0 0-1.7 1.5 2 2 0 0 0 1.2 1.6h.6a1.3 1.3 0 0 0 1.3-1.2c.1 0 .1-.2.1-.4a1.5 1.5 0 0 0-1.5-1.5z"/><path d="M34.2 30.8L19.4 5.2a1.6 1.6 0 0 0-2.8 0L1.8 30.8a1.6 1.6 0 0 0 1.5 2.4h29.4a1.6 1.6 0 0 0 1.5-2.4zm-13.9-2.9a2 2 0 0 1 .3 1.1 1.9 1.9 0 0 1-.6 1.5 2 2 0 0 1-1.4.6 1.9 1.9 0 0 1-1.3-.5l-1.4-1.1a6.2 6.2 0 0 1-1-1.7v-.4a1.8 1.8 0 0 1 1.2-1.8l-.7-1c-.2-1.7-.1-4.4-.2-6.2v-6.8h3a15.1 15.1 0 0 1 2.9 1.4c-.2 3.4-.7 9.2-.9 13.8h-1a5.7 5.7 0 0 1 1.1 1.1z"/><path d="M18.1 12.4l-2.4-.2v5c0 2.5.2 4.9.2 7.2l1.6.2c.1-4 .4-9.7.6-12.2z"/></symbol><symbol id="closed" viewBox="0 0 36 36"><path d="M6.686 3.814L32.142 29.27l-2.779 2.778L3.907 6.593z"/><path d="M3.814 29.314L29.27 3.858l2.778 2.779L6.593 32.093z"/></symbol><symbol id="facebook" viewBox="0 0 36 36"><path d="M36 6a6.2 6.2 0 0 0-6-6H6a6.2 6.2 0 0 0-6 6v24a6.2 6.2 0 0 0 6 6h12V22.4h-4.4v-6H18v-2.3c0-4.1 3-7.7 6.8-7.7h4.8v6h-4.8c-.6 0-1.2.6-1.2 1.6v2.4h6v6h-6V36H30a6.2 6.2 0 0 0 6-6z"/></symbol><symbol id="hamburger" viewBox="0 0 36 36"><path d="M0 8.2h36v3.93H0zM0 16h36v3.93H0zm0 7.9h36v3.93H0z"/></symbol><symbol id="instagram" viewBox="0 0 36 36"><path d="M24.7 0H11.2A11.2 11.2 0 0 0 0 11.2v13.6A11.2 11.2 0 0 0 11.2 36h13.5A11.2 11.2 0 0 0 36 24.8V11.2A11.2 11.2 0 0 0 24.7 0zm7.9 24.8a7.8 7.8 0 0 1-7.9 7.8H11.2a7.8 7.8 0 0 1-7.8-7.8V11.2a7.8 7.8 0 0 1 7.8-7.8h13.5a7.8 7.8 0 0 1 7.9 7.8z"/><path d="M18 9a9 9 0 1 0 9 9 9 9 0 0 0-9-9zm0 14.6a5.6 5.6 0 1 1 5.6-5.6 5.6 5.6 0 0 1-5.6 5.6z"/><circle cx="27.7" cy="8.3" r="1.2"/></symbol><symbol id="minus" viewBox="0 0 36 36"><path d="M0 16h36v3.93H0z"/></symbol><symbol id="plus" viewBox="0 0 36 36"><path d="M0 16h36v3.93H0z"/><path d="M16 36V0h3.93v36z"/></symbol><symbol id="shopping-cart" viewBox="0 0 36 36"><path d="M10.7 8.9c-.6 0-1.4.2-1.8-.1s-.5-1.1-.7-1.6a4.5 4.5 0 0 0-3.9-2.8 4.3 4.3 0 0 0-4 2.1 1.3 1.3 0 0 0 .2 1.8A1.3 1.3 0 0 0 2.3 8a2 2 0 0 1 2.2-1 2 2 0 0 1 1.6 1.8c1.1 3.7 2.1 7.4 3.2 11.2l2.6 8.2h17.8v-2.6h-14c-2.3 0-2.3 0-2.8-2.2v-.3l21.8-3.4.6-4.7c.2-1.8.5-3.6.7-5.4v-.7zm21.8 8.3c0 .2-.5.4-.8.5l-15.5 2.4-4.1.6-2.6-9.2h23.7c-.3 1.9-.4 3.8-.7 5.7z"/><circle cx="11.9" cy="30" r="1.5"/><circle cx="28.1" cy="30" r="1.5"/></symbol><symbol id="twitter" viewBox="0 0 36 36"><path fill="#050505" d="M36 6.8A14.5 14.5 0 0 1 31.8 8 7.3 7.3 0 0 0 35 3.9a12.8 12.8 0 0 1-4.7 1.8 7.5 7.5 0 0 0-5.4-2.3 7.4 7.4 0 0 0-7.4 7.4 8.8 8.8 0 0 0 .2 1.6A20.9 20.9 0 0 1 2.5 4.7a7.9 7.9 0 0 0-1 3.7 7.4 7.4 0 0 0 3.3 6.2 9.5 9.5 0 0 1-3.4-.9 7.5 7.5 0 0 0 6 7.2 6.4 6.4 0 0 1-2 .3L4 21.1a7.3 7.3 0 0 0 6.9 5.1 14.6 14.6 0 0 1-9.1 3.2H0a20.8 20.8 0 0 0 11.3 3.3c13.6 0 21-11.2 21-21v-.9a15.2 15.2 0 0 0 3.7-4z"/></symbol></svg>