<svg id="Layer_1" data-name="Layer 1" xmlns="http://www.w3.org/2000/svg" width="0.9in" height="0.9in" viewBox="0 0 64 64"><title>musroomboy</title><path d="M59.8,15.5s-1.6,4.1-8.6,6.6-31.7,1.3-39.8-.5-7.2-6-7.2-6l13-4.9L43.3,9.3,56,13.4Z" fill="#019790"/><path d="M4.3,15.3a.8.8,0,0,0,.2,1c1,.6,3.4,1.3,8.6-.5,7.4-2.6,9.6,1.4,16.3.6s7.9-1.1,12-.5,17.7.3,18.4-.4S52.1-.2,32.8-.2C15.6-.2,6.2,12.5,4.3,15.3Z" fill="#f94e67"/><path d="M39.6,20.2c0,2.4,3,13.6,4.8,18.3,2.7,7.1.4,15-2.9,18.3s-9.8,4-16,1.8-7.9-11.8-4-21A92.4,92.4,0,0,0,27,20.5a18.4,18.4,0,0,0,4-.6,7.9,7.9,0,0,1,4-.4A40.2,40.2,0,0,0,39.6,20.2Z" fill="#f94e67"/><path d="M15.8,19.5s11.5,1.8,14.8.5,5.8,0,7,0,8.2,1.3,12.1-.8" fill="none" stroke="#f7c602" stroke-linecap="round" stroke-miterlimit="10" stroke-width="1.12"/><rect x="24.8" y="58.1" width="3.9" height="6.06" fill="#f94e67"/><rect x="34.6" y="58.1" width="3.9" height="6.06" fill="#f94e67"/><circle cx="27.1" cy="42.9" r="1.7" fill="#f7c602"/><circle cx="37.1" cy="43.2" r="1.7" fill="#f7c602"/><path d="M28.4,48.5a3.3,3.3,0,0,0,2.2-.4c.9-.6,1.2-1.9,1.6-2.8h-.6c0,1.1,0,2.6,1.2,3a3.3,3.3,0,0,0,2.4-.1c.4-.1.1-.2-.2-.1-2.2.9-2.8-1.3-2.8-3,0-.1-.6.1-.6.2s-.8,2.9-2.8,2.9c-.1,0-.7.2-.4.2Z" fill="#f7c602"/><rect x="17.9" y="45.1" width="3" height="9.05" transform="translate(37 -0.6) rotate(40.7)" fill="#f94e67"/><rect x="43.6" y="45.1" width="3" height="9.05" transform="translate(-19.8 32.6) rotate(-33.1)" fill="#f94e67"/></svg>