<svg id="Layer_1" data-name="Layer 1" xmlns="http://www.w3.org/2000/svg" width="0.2in" height="0.2in" viewBox="0 0 16 16"><title>musroomboy</title><path d="M14.9,3.9a3.4,3.4,0,0,1-2.1,1.6c-1.8.7-7.9.4-9.9-.1S1.1,3.9,1.1,3.9L4.3,2.7l6.5-.3,3.2,1Z" fill="#019790"/><path d="M1.1,3.8a.4.4,0,0,0,.1.3A2.9,2.9,0,0,0,3.3,4c1.9-.7,2.4.3,4,.1a10.6,10.6,0,0,1,3-.1,16.6,16.6,0,0,0,4.6-.1C15.1,3.7,13,0,8.2,0A8.8,8.8,0,0,0,1.1,3.8Z" fill="#f94e67"/><path d="M9.9,5.1a21.8,21.8,0,0,0,1.2,4.5,5,5,0,0,1-.7,4.6,4,4,0,0,1-4,.4c-1.6-.5-2-2.9-1-5.2A23.7,23.7,0,0,0,6.8,5.1h1a1.6,1.6,0,0,1,1-.1Z" fill="#f94e67"/><path d="M4,4.9A13.7,13.7,0,0,0,7.7,5,3.1,3.1,0,0,1,9.4,5a6.5,6.5,0,0,0,3-.2" fill="none" stroke="#f7c602" stroke-linecap="round" stroke-miterlimit="10" stroke-width="0.28"/><rect x="6.2" y="14.5" width="1" height="1.51" fill="#f94e67"/><rect x="8.7" y="14.5" width="1" height="1.51" fill="#f94e67"/><circle cx="6.8" cy="10.7" r="0.4" fill="#f7c602"/><circle cx="9.3" cy="10.8" r="0.4" fill="#f7c602"/><path d="M7.1,12.1c.6,0,.7-.3.9-.8H7.9c0,.6.3,1,.9.8s0-.1,0-.1a.5.5,0,0,1-.7-.3.6.6,0,0,1-.1-.4H7.9c-.1.4-.2.8-.7.8Z" fill="#f7c602"/><rect x="4.5" y="11.2" width="0.7" height="2.25" transform="translate(9.2 -0.2) rotate(40.7)" fill="#f94e67"/><rect x="10.9" y="11.2" width="0.7" height="2.25" transform="matrix(0.84, -0.55, 0.55, 0.84, -4.93, 8.15)" fill="#f94e67"/></svg>