<svg id="Layer_1" data-name="Layer 1" xmlns="http://www.w3.org/2000/svg" width="0.4in" height="0.4in" viewBox="0 0 32 32"><title>musroomboy</title><path d="M29.8,7.8s-.8,2-4.3,3.3-15.7.6-19.7-.3-3.6-3-3.6-3L8.6,5.4l13-.7L28,6.8Z" fill="#019790"/><path d="M2.2,7.7c-.1.1,0,.4.1.5s1.7.7,4.3-.3,4.8.7,8.1.3,3.9-.5,6-.2,8.8.1,9.1-.2S26,0,16.4,0,3.2,6.3,2.2,7.7Z" fill="#f94e67"/><path d="M19.8,10.1a49.6,49.6,0,0,0,2.4,9.1c1.3,3.6.2,7.5-1.5,9.1s-4.8,2-7.9.9-4-5.8-2-10.4a42.7,42.7,0,0,0,2.7-8.5,8.8,8.8,0,0,0,2-.3,3.4,3.4,0,0,1,2-.2A12,12,0,0,0,19.8,10.1Z" fill="#f94e67"/><path d="M7.9,9.8s5.8.9,7.4.3a5.9,5.9,0,0,1,3.5-.1c.6,0,4.1.7,6-.4" fill="none" stroke="#f7c602" stroke-linecap="round" stroke-miterlimit="10" stroke-width="0.56"/><rect x="12.4" y="29" width="2" height="3.02" fill="#f94e67"/><rect x="17.3" y="29" width="2" height="3.02" fill="#f94e67"/><circle cx="13.6" cy="21.4" r="0.8" fill="#f7c602"/><circle cx="18.5" cy="21.6" r="0.8" fill="#f7c602"/><path d="M14.2,24.2a2,2,0,0,0,1.1-.2,3.9,3.9,0,0,0,.8-1.4h-.3c0,.5,0,1.2.6,1.5a1.7,1.7,0,0,0,1.2-.1c.2-.1,0-.1-.1-.1s-1.4-.6-1.4-1.4-.3,0-.3.1-.4,1.4-1.4,1.4Z" fill="#f7c602"/><rect x="9" y="22.5" width="1.5" height="4.5" transform="translate(18.5 -0.3) rotate(40.7)" fill="#f94e67"/><rect x="21.8" y="22.5" width="1.5" height="4.5" transform="translate(-9.9 16.3) rotate(-33.1)" fill="#f94e67"/></svg>