<svg id="Layer_1" data-name="Layer 1" xmlns="http://www.w3.org/2000/svg" width="3.6in" height="3.6in" viewBox="0 0 256 256"><title>musroomboy</title><path d="M239.9,63s-6.4,16-34,26S80.8,94,48.8,87,20.2,63.2,20.2,63.2L71.6,43.8l103-5.2L225,54.7Z" fill="#019790"/><path d="M20.7,61.9a2.9,2.9,0,0,0,.9,4.1c3.9,2.4,13.5,5.3,34-2,29.2-10.4,37.6,5.4,64,2.4s31.3-4.3,47.6-1.9,70,1.1,72.7-1.5S209.5.9,133.2.9C65.3.9,28.1,50.8,20.7,61.9Z" fill="#f94e67"/><path d="M160,81.4c0,9.4,12.1,53.7,19,72.2,10.6,28.1,1.7,59.2-11.5,72.4s-38.6,15.7-63.1,7.1S73.1,186.5,88.8,150a371.5,371.5,0,0,0,21.6-67.4s13.1-.8,15.7-2.4,13-2.9,16-1.5S160,81.4,160,81.4Z" fill="#f94e67"/><path d="M66,78.8s45.5,7,58.7,2,22.7-.1,27.4-.1,32.5,5.1,47.9-3.4" fill="none" stroke="#f7c602" stroke-linecap="round" stroke-miterlimit="10" stroke-width="4.41"/><rect x="101.6" y="231.1" width="15.6" height="23.94" fill="#f94e67"/><rect x="140.5" y="231.1" width="15.6" height="23.94" fill="#f94e67"/><circle cx="110.9" cy="171.2" r="6.6" fill="#f7c602"/><circle cx="150.2" cy="172.4" r="6.6" fill="#f7c602"/><path d="M116,193.3c2.6.1,5.5,0,7.9-1.3,4-2.2,5.2-7.7,6.9-11.6l-2.3.5c-.1,4.8.1,10.5,5.5,12.1a13.3,13.3,0,0,0,9.2-.7c1.4-.6-.8-.6-1.4-.3-8.7,3.9-11.1-5.7-11-11.7,0-.5-2.1.1-2.3.5-2.4,5.5-3.6,11.7-11,11.5-.5,0-2.7,1-1.5,1Z" fill="#f7c602"/><rect x="74.2" y="179.6" width="11.7" height="35.74" transform="translate(148.2 -4.4) rotate(40.7)" fill="#f94e67"/><rect x="175.8" y="179.6" width="11.7" height="35.74" transform="translate(-78.3 131.2) rotate(-33.1)" fill="#f94e67"/></svg>