<svg id="Layer_1" data-name="Layer 1" xmlns="http://www.w3.org/2000/svg" width="0.5in" height="0.5in" viewBox="0 0 36 36"><title>Shopping Cart</title><g id="mFs7Cc"><path d="M10.7,8.9c-.6,0-1.4.2-1.8-.1s-.5-1.1-.7-1.6A4.5,4.5,0,0,0,4.3,4.4a4.3,4.3,0,0,0-4,2.1A1.3,1.3,0,0,0,.5,8.3,1.3,1.3,0,0,0,2.3,8,2,2,0,0,1,4.5,7,2,2,0,0,1,6.1,8.8C7.2,12.5,8.2,16.2,9.3,20l2.6,8.2H29.7V25.6h-14c-2.3,0-2.3,0-2.8-2.2v-.3l21.8-3.4.6-4.7c.2-1.8.5-3.6.7-5.4V8.9Zm21.8,8.3c0,.2-.5.4-.8.5L16.2,20.1l-4.1.6L9.5,11.5H33.2C32.9,13.4,32.8,15.3,32.5,17.2Z"/></g><circle cx="11.9" cy="30" r="1.5"/><circle cx="28.1" cy="30" r="1.5"/></svg>